<svg xmlns="http://www.w3.org/2000/svg" width="40" height="82"><g fill="#69BED0" stroke="#69BED0" transform="translate(1 1)"><ellipse cx="4.75" cy="4.706" rx="4.75" ry="4.706"/><ellipse cx="33.25" cy="4.706" rx="4.75" ry="4.706"/><ellipse cx="4.75" cy="18.824" rx="4.75" ry="4.706"/><ellipse cx="33.25" cy="18.824" rx="4.75" ry="4.706"/><ellipse cx="4.75" cy="32.941" rx="4.75" ry="4.706"/><ellipse cx="33.25" cy="32.941" rx="4.75" ry="4.706"/><ellipse cx="19" cy="47.059" rx="4.75" ry="4.706"/><ellipse cx="33.25" cy="47.059" rx="4.75" ry="4.706"/><ellipse cx="19" cy="61.176" rx="4.75" ry="4.706"/><ellipse cx="19" cy="4.706" rx="4.75" ry="4.706"/><ellipse cx="19" cy="18.824" rx="4.75" ry="4.706"/><ellipse cx="19" cy="32.941" rx="4.75" ry="4.706"/><ellipse cx="4.75" cy="47.059" rx="4.75" ry="4.706"/><ellipse cx="4.75" cy="61.176" rx="4.75" ry="4.706"/><ellipse cx="33.25" cy="61.176" rx="4.75" ry="4.706"/><ellipse cx="4.75" cy="75.294" rx="4.75" ry="4.706"/><ellipse cx="19" cy="75.294" rx="4.75" ry="4.706"/><ellipse cx="33.25" cy="75.294" rx="4.75" ry="4.706"/></g></svg>